<svg xmlns="http://www.w3.org/2000/svg" width="1200" height="760" viewBox="0 0 1200 760">
  <rect width="1200" height="760" fill="#f6f8fb"/>
  <rect x="40" y="40" width="1120" height="680" rx="12" fill="#ffffff" stroke="#cfd6e4"/>
  <text x="70" y="95" font-family="Arial, sans-serif" font-size="32" fill="#1a2b49">CakeBackupPro - Admin Setup (Placeholder)</text>

  <rect x="70" y="130" width="1060" height="90" rx="8" fill="#f0f4ff" stroke="#cfd6e4"/>
  <text x="90" y="182" font-family="Arial, sans-serif" font-size="24" fill="#1a2b49">/admin/backups - Configure Backup Destination and Policy</text>

  <rect x="70" y="250" width="510" height="70" rx="8" fill="#ffffff" stroke="#cfd6e4"/>
  <text x="90" y="294" font-family="Arial, sans-serif" font-size="22" fill="#4a5872">Backblaze Key ID</text>

  <rect x="620" y="250" width="510" height="70" rx="8" fill="#ffffff" stroke="#cfd6e4"/>
  <text x="640" y="294" font-family="Arial, sans-serif" font-size="22" fill="#4a5872">Backblaze Application Key</text>

  <rect x="70" y="340" width="740" height="70" rx="8" fill="#ffffff" stroke="#cfd6e4"/>
  <text x="90" y="384" font-family="Arial, sans-serif" font-size="22" fill="#4a5872">Backup Path (bucket/prefix)</text>

  <rect x="830" y="340" width="300" height="70" rx="8" fill="#ffffff" stroke="#cfd6e4"/>
  <text x="850" y="384" font-family="Arial, sans-serif" font-size="22" fill="#4a5872">Region</text>

  <rect x="70" y="450" width="1060" height="90" rx="8" fill="#ffffff" stroke="#cfd6e4"/>
  <text x="90" y="505" font-family="Arial, sans-serif" font-size="22" fill="#4a5872">Schedule / Retention / Components</text>

  <rect x="70" y="570" width="350" height="70" rx="8" fill="#e8f6ee" stroke="#bfe3cd"/>
  <text x="110" y="614" font-family="Arial, sans-serif" font-size="22" fill="#1f5a3f">Validate Connection</text>

  <rect x="450" y="570" width="300" height="70" rx="8" fill="#e8f0ff" stroke="#bfd0f2"/>
  <text x="540" y="614" font-family="Arial, sans-serif" font-size="22" fill="#1f3f7a">Run DB Backup</text>

  <rect x="780" y="570" width="350" height="70" rx="8" fill="#e8f0ff" stroke="#bfd0f2"/>
  <text x="860" y="614" font-family="Arial, sans-serif" font-size="22" fill="#1f3f7a">Run Full Backup</text>

  <circle cx="560" cy="285" r="20" fill="#1e5eff"/><text x="554" y="292" font-family="Arial, sans-serif" font-size="16" fill="#fff">1</text>
  <circle cx="1110" cy="285" r="20" fill="#1e5eff"/><text x="1104" y="292" font-family="Arial, sans-serif" font-size="16" fill="#fff">2</text>
  <circle cx="790" cy="375" r="20" fill="#1e5eff"/><text x="784" y="382" font-family="Arial, sans-serif" font-size="16" fill="#fff">3</text>
  <circle cx="1120" cy="505" r="20" fill="#1e5eff"/><text x="1114" y="512" font-family="Arial, sans-serif" font-size="16" fill="#fff">4</text>
  <circle cx="420" cy="605" r="20" fill="#1e5eff"/><text x="414" y="612" font-family="Arial, sans-serif" font-size="16" fill="#fff">5</text>
  <circle cx="750" cy="605" r="20" fill="#1e5eff"/><text x="744" y="612" font-family="Arial, sans-serif" font-size="16" fill="#fff">6</text>
</svg>

